<?xml version="1.0" standalone="no"?>
<!DOCTYPE svg PUBLIC "-//W3C//DTD SVG 20010904//EN"
 "http://www.w3.org/TR/2001/REC-SVG-20010904/DTD/svg10.dtd">
<svg version="1.0" xmlns="http://www.w3.org/2000/svg"
 width="4427.000000pt" height="835.000000pt" viewBox="0 0 4427.000000 835.000000"
 preserveAspectRatio="xMidYMid meet">

<g transform="translate(0.000000,835.000000) scale(0.100000,-0.100000)"
fill="#000000" stroke="none">
<path d="M37956 8313 c-3 -21 -6 -47 -6 -58 1 -18 3 -17 25 8 31 35 34 87 6
87 -14 0 -20 -10 -25 -37z"/>
<path d="M38750 8344 c0 -3 128 -187 283 -407 156 -221 286 -407 288 -412 2
-6 94 -139 203 -295 206 -295 337 -482 342 -489 1 -1 12 3 23 11 20 14 19 15
-18 69 -40 57 -463 657 -640 907 -57 81 -178 254 -268 385 -138 198 -169 237
-189 237 -13 0 -24 -3 -24 -6z"/>
<path d="M40030 8335 c-10 -12 -10 -18 1 -32 13 -16 12 -17 -4 -4 -9 8 -20 11
-23 8 -12 -11 31 -24 54 -16 24 9 29 25 10 32 -10 4 -10 6 0 6 6 1 12 6 12 11
0 15 -36 12 -50 -5z"/>
<path d="M41016 8343 c-4 -5 -13 -8 -19 -8 -7 0 -12 -17 -12 -45 0 -33 4 -45
15 -45 8 0 16 -10 18 -22 3 -18 -2 -23 -18 -23 -20 0 -22 -4 -18 -36 4 -30 0
-38 -19 -47 -18 -8 -23 -18 -23 -49 0 -32 -3 -38 -21 -38 -19 0 -20 -5 -18
-92 2 -87 1 -94 -19 -103 -12 -5 -22 -17 -22 -26 0 -8 -3 -19 -7 -23 -4 -4 -8
-15 -8 -24 0 -9 -6 -18 -12 -18 -7 -1 -18 -2 -24 -3 -5 0 -7 -6 -4 -12 4 -5 9
-24 12 -40 4 -28 3 -29 -21 -23 -25 6 -26 5 -26 -44 0 -45 -2 -50 -20 -45 -15
4 -20 0 -20 -15 0 -12 -9 -26 -20 -32 -15 -8 -20 -21 -20 -49 0 -33 -3 -38
-22 -37 -20 1 -23 -4 -22 -40 1 -37 -1 -40 -21 -36 -19 3 -23 -1 -27 -27 -2
-17 0 -32 6 -34 16 -5 -3 -27 -24 -27 -17 0 -19 -6 -16 -40 3 -37 1 -40 -21
-40 -23 0 -24 -3 -22 -41 3 -36 0 -43 -19 -50 -14 -5 -23 -16 -21 -26 4 -47 0
-53 -41 -53 -40 0 -40 0 -40 -39 0 -22 -4 -42 -9 -45 -5 -3 -7 -15 -4 -26 4
-15 0 -20 -16 -20 -14 0 -21 -6 -21 -20 0 -13 -7 -20 -20 -20 -11 0 -19 -3
-19 -7 1 -5 1 -23 0 -40 -1 -26 -5 -33 -21 -33 -17 0 -20 -7 -20 -45 0 -25 -3
-44 -7 -44 -20 3 -34 -2 -29 -10 3 -5 -5 -11 -18 -13 -20 -4 -29 2 -48 31 -13
19 -37 43 -54 53 -29 17 -33 17 -47 3 -9 -8 -23 -15 -31 -15 -9 0 -16 -8 -16
-20 0 -13 -7 -20 -20 -20 -17 0 -20 -7 -20 -41 0 -41 0 -41 -32 -34 -18 4 -48
14 -67 21 -48 20 -53 18 -46 -18 8 -36 -9 -29 -18 7 -3 12 -5 6 -6 -15 l-1
-36 -142 -27 c-79 -15 -276 -52 -438 -82 -162 -30 -305 -57 -317 -60 -18 -4
-23 -1 -23 15 0 13 -7 20 -20 20 -11 0 -20 7 -20 16 0 9 5 12 13 8 10 -6 10
-4 0 7 -7 7 -13 21 -13 31 0 20 26 25 33 6 3 -7 6 22 6 65 1 42 -2 76 -6 76
-29 -5 -31 4 -30 129 2 115 4 127 20 124 12 -2 17 4 17 22 0 19 -4 23 -20 19
-16 -4 -20 0 -20 18 -1 21 -2 22 -13 8 -21 -27 -179 -201 -236 -259 l-53 -55
21 -154 c12 -84 21 -154 19 -156 -2 -1 -84 -18 -183 -38 -99 -19 -276 -54
-393 -77 -117 -23 -214 -41 -216 -39 -2 2 0 36 4 74 5 39 16 148 25 244 9 96
18 191 20 210 4 37 9 88 20 201 4 36 8 79 10 95 3 23 19 245 25 345 0 8 2 31
3 50 1 25 -2 35 -13 35 -10 0 -16 -11 -17 -33 -1 -18 -8 -85 -17 -150 -8 -64
-17 -146 -20 -182 -6 -65 -71 -735 -82 -843 -5 -50 -9 -58 -31 -63 -16 -4 -22
-11 -19 -21 3 -8 6 -17 6 -19 0 -2 7 -4 16 -4 18 0 16 -64 -11 -330 -8 -74
-23 -223 -35 -330 -11 -107 -22 -215 -25 -240 -2 -25 -9 -99 -15 -165 -6 -66
-13 -142 -16 -168 l-6 -48 -197 -146 c-229 -171 -372 -277 -761 -563 -157
-116 -403 -298 -547 -405 -145 -108 -268 -192 -276 -190 -12 5 -27 -10 -100
-102 -18 -22 -18 -23 0 -16 10 4 23 13 29 21 7 9 16 12 24 7 8 -5 11 -4 6 3
-7 12 44 52 69 52 9 0 13 5 10 10 -3 6 5 14 19 20 14 5 26 15 26 21 0 7 2 10
5 7 3 -3 19 8 35 24 17 17 35 26 41 22 7 -4 9 -3 6 2 -6 10 162 131 176 126 5
-1 6 2 3 7 -8 13 21 34 35 25 7 -4 10 -3 7 2 -3 5 11 23 30 39 20 17 32 23 27
15 -5 -8 11 2 36 23 25 20 50 33 54 29 5 -4 5 -2 1 5 -7 13 27 37 38 26 3 -3
6 1 6 10 0 10 3 17 8 17 6 0 110 74 140 100 6 6 12 8 12 5 0 -3 12 7 26 22 14
15 22 21 18 13 -4 -8 8 0 27 17 18 18 38 32 43 32 5 0 12 5 17 13 5 7 14 13
21 13 7 1 12 6 11 13 -2 7 2 12 7 12 6 0 12 0 15 0 2 1 18 14 35 31 18 18 35
27 42 23 7 -4 10 -4 6 1 -8 9 32 42 45 37 5 -1 6 2 3 7 -4 5 7 15 23 22 16 7
27 17 25 21 -3 4 6 8 20 8 14 0 25 3 23 8 -1 4 0 7 3 8 20 3 49 27 44 35 -3 6
3 13 15 16 12 3 21 10 21 16 0 6 3 8 6 5 3 -3 15 4 28 16 33 31 66 51 79 48 7
-2 9 0 5 4 -9 8 32 40 45 36 5 -1 6 2 2 8 -6 9 7 14 28 11 4 0 7 4 7 9 0 6 6
10 14 10 8 0 18 5 22 12 5 7 2 8 -7 3 -30 -17 8 14 81 66 41 29 88 63 103 76
16 13 34 20 39 17 6 -4 8 -2 5 3 -4 6 12 23 36 39 23 16 45 33 49 39 4 5 5 -6
2 -25 -2 -19 -18 -177 -34 -350 -16 -173 -32 -336 -36 -362 -5 -40 -3 -48 10
-48 9 0 20 10 25 23 5 12 23 173 41 357 17 184 34 355 37 380 5 41 5 44 -10
31 -10 -7 -17 -9 -17 -3 0 15 28 34 40 27 6 -4 9 -1 8 7 -2 7 3 12 10 10 8 -1
11 2 8 7 -5 8 5 16 26 20 4 1 19 13 33 27 14 14 30 22 37 18 7 -4 8 -3 4 4 -4
7 -3 12 2 12 6 0 24 13 42 30 18 16 36 27 41 24 5 -3 9 0 9 6 0 6 5 8 10 5 6
-4 9 -1 8 6 -2 7 6 14 18 15 11 0 186 123 388 273 202 149 372 272 378 274 8
1 21 -63 38 -182 l27 -184 -280 -316 c-153 -174 -309 -350 -347 -391 -51 -57
-68 -84 -72 -112 -2 -22 0 -34 7 -31 5 3 71 74 145 159 74 85 149 169 165 188
17 19 93 105 170 192 77 88 158 178 180 202 l41 44 43 -299 c23 -164 49 -329
57 -368 8 -38 17 -90 20 -115 3 -25 12 -90 20 -144 10 -72 11 -101 3 -106 -6
-4 -177 -42 -380 -85 -321 -69 -369 -81 -369 -97 0 -10 2 -18 3 -18 6 0 578
120 982 205 1132 239 1352 286 1366 291 12 3 25 -9 42 -39 18 -30 40 -51 74
-68 26 -13 49 -24 50 -25 2 0 -11 -151 -27 -335 -38 -434 -79 -897 -85 -979
-3 -36 -7 -85 -10 -110 -2 -25 -7 -74 -10 -110 -3 -36 -8 -85 -10 -110 -2 -25
-7 -76 -10 -115 -24 -310 -77 -881 -83 -886 -4 -4 -266 -48 -582 -99 -316 -50
-708 -114 -871 -141 -162 -27 -298 -49 -301 -49 -3 0 -4 -9 -1 -21 5 -17 11
-20 37 -15 17 3 146 24 286 46 140 21 275 44 300 50 25 5 266 46 535 90 270
44 514 84 543 88 l52 9 -1 -41 c0 -23 -26 -330 -57 -684 -53 -591 -56 -642
-40 -642 22 0 17 -38 84 725 30 352 59 643 62 646 6 6 1056 179 1207 200 48 6
548 87 630 102 13 2 27 -5 37 -18 16 -21 14 -24 -53 -96 -37 -41 -68 -79 -69
-85 0 -7 -8 -15 -17 -19 -15 -5 -12 -9 16 -21 22 -9 31 -19 28 -28 -4 -10 2
-16 21 -18 24 -3 27 -8 30 -45 2 -29 8 -43 18 -43 19 0 18 -26 -1 -34 -9 -3
-15 -18 -15 -38 0 -25 3 -29 10 -18 8 13 10 12 10 -4 0 -15 3 -16 15 -6 13 11
13 8 3 -21 -11 -30 -13 -31 -16 -11 -2 12 -8 22 -14 22 -5 0 -8 -7 -5 -15 4
-8 2 -17 -3 -20 -7 -4 -7 -13 0 -24 5 -10 7 -21 3 -24 -3 -4 0 -14 8 -24 9
-11 10 -14 2 -9 -9 5 -13 -1 -13 -19 0 -14 4 -24 9 -21 10 7 9 -20 -2 -30 -4
-4 -1 -14 6 -22 10 -13 9 -15 -5 -9 -10 3 -18 2 -18 -3 0 -6 4 -10 8 -10 5 0
5 -21 1 -48 -4 -26 -8 -53 -8 -59 -1 -7 -7 -13 -15 -13 -10 0 -15 -24 -18
-102 -5 -114 -3 -128 18 -101 12 16 13 14 7 -17 -3 -19 -3 -32 1 -29 12 11 50
264 51 336 0 22 4 39 8 36 11 -7 5 48 -7 65 -6 9 -4 11 8 6 13 -5 16 1 18 32
0 22 2 44 3 49 1 6 4 28 8 50 4 22 9 58 12 80 3 22 15 110 28 195 l22 154 44
8 c59 10 89 32 110 79 24 52 12 121 -25 160 l-27 28 111 248 c61 136 145 324
187 417 67 151 74 171 61 185 -9 8 -17 13 -19 10 -2 -2 -88 -193 -190 -424
l-188 -420 -45 -1 c-72 -2 -131 -57 -141 -130 l-5 -39 -294 -49 c-162 -27
-297 -46 -300 -43 -3 3 -18 1 -33 -5 -14 -6 -291 -54 -616 -108 -583 -96 -590
-97 -593 -76 -3 20 28 389 78 926 22 242 23 243 49 545 11 121 25 279 31 350
5 72 12 150 15 175 2 25 7 74 10 110 10 116 16 184 20 230 3 25 10 96 15 159
6 63 13 118 16 122 3 5 13 9 23 9 14 0 28 -26 59 -107 56 -146 273 -722 365
-968 42 -110 155 -409 252 -665 98 -256 182 -480 188 -498 6 -18 20 -38 30
-44 14 -7 16 -12 8 -18 -10 -5 -9 -9 2 -13 32 -12 6 71 -165 523 -97 256 -212
560 -256 675 -43 116 -136 359 -204 540 -69 182 -147 387 -173 457 l-48 126
36 35 c20 19 44 50 52 70 17 42 20 129 5 158 -6 10 -7 19 -3 19 4 0 30 20 57
44 37 33 46 47 39 59 -7 14 -17 11 -70 -24 l-62 -41 -28 22 c-42 30 -130 38
-187 16 -50 -19 -103 -72 -112 -114 -21 -94 -6 -82 -149 -113 -122 -26 -841
-179 -1200 -254 -88 -19 -179 -38 -202 -43 -50 -11 -53 -4 -23 46 11 17 16 32
12 32 -4 0 -2 4 4 8 13 8 59 94 56 105 -1 4 2 7 6 7 5 0 19 24 33 53 13 28 27
54 30 57 4 3 19 30 34 60 15 30 40 73 55 95 14 22 149 266 299 543 223 412
271 505 261 517 -7 8 -9 15 -5 15 4 0 1 8 -6 18 -13 15 -12 16 3 3 10 -7 15
-17 12 -22 -3 -5 -1 -9 4 -9 14 0 22 26 12 36 -5 5 -5 15 1 24 9 13 10 12 5
-2 -3 -10 -2 -18 2 -18 14 0 82 132 75 144 -3 6 -3 8 2 4 4 -4 40 52 80 125
98 181 281 519 319 590 23 42 39 60 61 67 28 9 333 74 1140 244 198 42 443 94
545 116 102 22 237 51 300 64 63 14 306 66 540 116 234 50 639 136 900 191
261 55 476 101 477 103 2 1 -9 9 -23 16 -29 16 53 32 -784 -149 -305 -65 -773
-165 -1040 -221 -267 -55 -521 -110 -565 -120 -71 -17 -429 -94 -1210 -260
-132 -28 -248 -53 -257 -56 -24 -7 -23 11 3 47 11 16 18 37 15 45 -3 8 -2 13
3 9 5 -3 33 39 62 92 29 54 65 123 82 153 29 55 390 720 407 751 5 10 32 58
59 108 28 50 52 97 54 104 1 6 5 14 9 17 3 3 36 61 73 130 37 69 78 144 92
166 l24 42 -99 1 c-54 1 -102 -2 -106 -6z m-1192 -1828 c5 -15 -33 -44 -447
-350 -59 -44 -111 -81 -115 -82 -6 -3 -105 81 -275 232 l-56 51 227 43 c125
24 315 60 422 81 227 44 236 45 244 25z m106 -4 c0 -13 -8 -21 -22 -23 -13 -2
-22 -9 -20 -17 3 -16 -20 -10 -26 7 -2 7 8 16 21 21 14 6 28 15 32 20 9 16 15
13 15 -8z m-150 -128 c-24 -27 -117 -132 -207 -235 -91 -104 -168 -188 -171
-188 -4 0 -29 20 -56 43 l-49 43 259 192 c142 105 261 191 262 192 2 0 -15
-21 -38 -47z m148 30 c12 -12 73 -18 130 -13 15 1 22 -4 22 -17 0 -11 5 -24
11 -30 17 -17 3 -31 -26 -28 -31 4 -36 -4 -41 -67 -1 -28 -6 -53 -10 -57 -4
-3 -4 2 -1 11 10 29 -9 29 -23 0 -8 -15 -13 -31 -11 -35 1 -5 -7 -11 -18 -14
-11 -3 -21 -15 -23 -27 -2 -13 -10 -20 -21 -20 -14 2 -17 -7 -17 -43 0 -40 -2
-45 -19 -40 -17 4 -20 -2 -26 -44 -5 -34 -11 -46 -20 -43 -10 4 -16 -8 -20
-40 -6 -37 -11 -46 -27 -46 -17 0 -19 -6 -17 -40 2 -24 -2 -45 -10 -52 -9 -9
-12 -9 -7 -1 8 14 -10 28 -18 14 -3 -5 -7 -21 -8 -35 -2 -20 -5 -23 -16 -14
-10 9 -15 9 -20 0 -8 -11 -241 174 -243 193 -2 18 435 504 451 502 8 -1 21 -8
28 -14z m-1328 -120 c0 -5 14 -98 30 -208 16 -110 37 -251 46 -313 10 -62 15
-114 13 -116 -2 -2 -175 -130 -384 -285 -209 -155 -436 -325 -505 -377 -69
-52 -126 -90 -128 -84 -3 9 18 250 33 380 2 19 7 64 10 100 3 36 8 85 11 110
2 25 11 119 19 210 20 222 43 442 47 445 5 3 339 64 388 71 25 3 122 20 215
38 188 37 205 39 205 29z m1340 -213 c0 -5 -5 -10 -11 -10 -5 0 -7 5 -4 10 3
6 8 10 11 10 2 0 4 -4 4 -10z m2417 -4726 c-9 -9 -28 6 -21 18 4 6 10 6 17 -1
6 -6 8 -13 4 -17z"/>
<path d="M42400 8291 c0 -16 13 -22 73 -36 76 -17 978 -233 1012 -242 11 -3 2
8 -20 25 -41 30 -42 31 -510 142 -71 17 -219 53 -328 81 -109 27 -204 49 -212
49 -8 0 -15 -9 -15 -19z"/>
<path d="M42368 8283 c7 -3 16 -2 19 1 4 3 -2 6 -13 5 -11 0 -14 -3 -6 -6z"/>
<path d="M37453 7747 c-9 -18 -8 -24 2 -24 8 0 11 7 7 15 -3 10 -1 13 6 8 8
-5 10 -2 6 8 -8 21 -9 20 -21 -7z"/>
<path d="M37309 7743 c-13 -16 -12 -17 4 -4 9 7 17 15 17 17 0 8 -8 3 -21 -13z"/>
<path d="M37329 7733 c-13 -16 -12 -17 4 -4 9 7 17 15 17 17 0 8 -8 3 -21 -13z"/>
<path d="M37260 7690 c0 -5 5 -10 11 -10 5 0 7 5 4 10 -3 6 -8 10 -11 10 -2 0
-4 -4 -4 -10z"/>
<path d="M37397 7677 c2 -4 9 -4 15 -1 7 4 8 2 4 -5 -4 -6 -11 -9 -15 -7 -4 3
-13 1 -21 -5 -9 -5 -10 -9 -3 -9 7 0 9 -9 5 -22 -5 -20 -3 -21 10 -10 14 12
18 7 28 -42 12 -59 17 -61 68 -28 l24 15 -46 39 c-49 42 -56 61 -29 76 13 8
10 10 -14 9 -17 -1 -29 -5 -26 -10z"/>
<path d="M40730 7646 c0 -8 4 -17 9 -20 5 -4 7 3 4 14 -6 23 -13 26 -13 6z"/>
<path d="M44000 6942 c-146 -109 -461 -341 -700 -518 -467 -345 -1001 -741
-1115 -828 -66 -50 -305 -226 -900 -664 -137 -101 -251 -189 -253 -197 -2 -7
2 -16 8 -20 5 -3 175 116 378 266 606 451 712 529 832 616 376 275 868 637
1390 1023 327 242 603 446 613 453 12 8 18 22 15 39 -3 25 -17 16 -268 -170z"/>
<path d="M44221 5935 c-24 -55 -75 -167 -113 -249 -38 -83 -66 -156 -63 -165
3 -8 3 -12 -1 -8 -4 3 -45 -80 -91 -186 -47 -105 -98 -219 -113 -252 -15 -33
-82 -182 -148 -330 -66 -149 -179 -402 -251 -564 -73 -161 -130 -296 -127
-298 17 -18 54 49 171 313 73 164 138 310 145 324 6 14 79 178 161 365 83 187
155 349 161 359 30 56 117 260 113 264 -3 3 2 10 10 16 8 6 55 105 105 220 74
170 90 217 88 250 -3 41 -3 40 -47 -59z"/>
<path d="M33615 5947 c-72 -113 -476 -733 -621 -953 -30 -45 -54 -86 -54 -92
0 -6 -4 -12 -8 -14 -14 -6 -54 -68 -40 -63 14 6 118 159 118 174 0 5 3 11 8
13 4 2 110 161 237 353 126 193 272 412 323 489 52 76 90 142 85 147 -4 4 -26
-20 -48 -54z"/>
<path d="M35173 5387 c-215 -161 -471 -350 -567 -422 -97 -71 -176 -133 -176
-137 0 -5 -6 -8 -12 -8 -7 0 -31 -17 -53 -36 -22 -20 -32 -34 -22 -30 11 3 16
2 12 -5 -4 -5 -15 -7 -26 -4 -11 4 -19 2 -19 -4 0 -6 -3 -10 -7 -9 -16 5 -63
-35 -63 -53 0 -23 16 -25 24 -3 4 9 9 14 12 11 10 -9 154 104 147 116 -3 6 -1
7 5 3 7 -4 17 -2 24 3 7 6 128 95 269 198 786 577 877 646 872 659 -3 8 -10
14 -17 13 -6 0 -187 -131 -403 -292z"/>
<path d="M32855 4777 c-22 -25 -96 -137 -90 -137 3 0 -2 -8 -11 -17 -13 -14
-174 -255 -208 -310 -4 -8 -2 -11 6 -8 7 3 43 51 79 108 37 56 107 164 157
240 51 75 88 137 84 137 -4 -1 -12 -6 -17 -13z"/>
<path d="M34197 4662 c-15 -9 -27 -23 -27 -31 0 -8 -3 -11 -6 -8 -12 12 -46
-14 -40 -30 5 -13 4 -14 -8 -4 -11 10 -17 7 -30 -11 -9 -12 -16 -19 -16 -15 0
3 -111 -76 -247 -176 -137 -100 -272 -200 -300 -221 -32 -23 -53 -45 -53 -57
0 -10 3 -19 6 -19 7 0 371 269 396 293 10 9 20 17 23 17 13 0 170 124 167 132
-1 5 2 7 7 4 5 -4 25 6 43 22 18 16 43 34 55 41 13 7 20 17 17 26 -4 10 0 13
14 10 24 -4 44 15 34 32 -5 8 -15 7 -35 -5z"/>
<path d="M31040 4523 c0 -25 193 -71 216 -52 12 10 13 9 8 -5 -4 -12 -2 -15 9
-10 8 3 18 1 22 -5 3 -6 10 -11 15 -11 11 0 6 35 -6 36 -5 0 -16 4 -24 7 -20
8 -216 57 -229 57 -6 0 -11 -8 -11 -17z"/>
<path d="M38026 4373 c-6 -14 -5 -15 5 -6 7 7 10 15 7 18 -3 3 -9 -2 -12 -12z"/>
<path d="M37990 4346 c0 -2 7 -7 16 -10 8 -3 12 -2 9 4 -6 10 -25 14 -25 6z"/>
<path d="M37977 4309 c7 -7 15 -10 18 -7 3 3 -2 9 -12 12 -14 6 -15 5 -6 -5z"/>
<path d="M32504 4246 c-20 -32 -32 -42 -46 -38 -20 5 -22 -16 -3 -30 7 -5 6
-11 0 -15 -19 -14 -57 -73 -47 -73 6 0 27 26 48 58 20 31 50 76 66 100 16 23
25 42 19 42 -5 0 -22 -20 -37 -44z"/>
<path d="M37916 4258 c3 -4 9 -8 15 -8 5 0 9 4 9 8 0 5 -7 9 -15 9 -8 0 -12
-4 -9 -9z"/>
<path d="M37910 4225 c0 -8 2 -15 4 -15 2 0 6 7 10 15 3 8 1 15 -4 15 -6 0
-10 -7 -10 -15z"/>
<path d="M37875 4210 c-3 -6 1 -7 9 -4 18 7 21 14 7 14 -6 0 -13 -4 -16 -10z"/>
<path d="M37826 4163 c-6 -14 -5 -15 5 -6 7 7 10 15 7 18 -3 3 -9 -2 -12 -12z"/>
<path d="M32378 4058 c-27 -41 -39 -68 -31 -68 5 0 20 20 35 45 27 45 23 65
-4 23z"/>
<path d="M32300 3936 c-16 -25 -30 -51 -30 -58 0 -13 30 26 56 75 22 41 9 32
-26 -17z"/>
<path d="M28790 3858 c-157 -45 -189 -252 -54 -350 32 -23 54 -30 92 -31 l51
-2 20 -75 c18 -64 45 -109 58 -96 2 2 -3 30 -12 62 -32 112 -32 111 15 151 52
45 70 85 70 160 0 128 -118 217 -240 181z"/>
<path d="M32241 3844 c-6 -15 -9 -29 -7 -32 3 -2 10 8 16 23 14 36 7 43 -9 9z"/>
<path d="M32100 3633 c-182 -278 -191 -293 -181 -293 12 0 304 447 299 459 -1
5 -55 -70 -118 -166z"/>
<path d="M31847 3245 c-37 -55 -53 -86 -45 -91 7 -4 8 -3 4 4 -4 7 -3 12 2 12
6 0 33 36 61 80 67 107 49 103 -22 -5z"/>
<path d="M31674 2984 c-132 -202 -127 -194 -116 -194 5 0 54 69 109 153 108
165 127 197 120 203 -2 2 -53 -71 -113 -162z"/>
<path d="M39090 3019 c-40 -16 -61 -40 -54 -63 4 -15 3 -17 -4 -7 -16 23 -35
-23 -26 -62 4 -18 8 -35 8 -39 1 -12 58 -59 83 -69 38 -14 53 -11 63 14 7 17
9 18 9 4 1 -15 4 -16 22 -6 17 8 19 13 8 19 -10 7 -10 11 0 24 7 8 9 21 5 28
-5 10 -4 10 6 1 11 -10 11 -15 0 -28 -17 -20 4 -20 24 1 18 18 20 30 6 39 -5
3 -10 12 -10 18 0 7 4 6 10 -3 7 -11 10 -6 10 22 0 47 -38 94 -88 108 -43 12
-40 12 -72 -1z m-54 -175 c1 -9 0 -13 -4 -10 -3 4 -7 14 -8 22 -1 9 0 13 4 10
3 -4 7 -14 8 -22z m108 -26 c-3 -5 -10 -5 -16 -2 -6 4 -17 -1 -25 -11 -14 -20
-17 -16 -7 9 3 9 16 15 29 14 13 -1 21 -6 19 -10z m-14 -29 c0 -6 -4 -7 -10
-4 -5 3 -10 11 -10 16 0 6 5 7 10 4 6 -3 10 -11 10 -16z"/>
<path d="M30454 2693 c-3 -21 -12 -67 -20 -102 -13 -57 -13 -67 0 -80 19 -18
19 -17 45 109 15 71 16 97 8 102 -21 13 -26 9 -33 -29z"/>
<path d="M30731 2456 c-118 -30 -123 -32 -96 -44 25 -12 45 -9 161 19 113 28
130 35 116 46 -24 17 -40 15 -181 -21z"/>
<path d="M30405 2400 c3 -5 8 -10 11 -10 2 0 4 5 4 10 0 6 -5 10 -11 10 -5 0
-7 -4 -4 -10z"/>
<path d="M30580 2406 c0 -2 7 -7 16 -10 8 -3 12 -2 9 4 -6 10 -25 14 -25 6z"/>
<path d="M30512 2391 c-11 -7 -11 -9 0 -14 9 -3 15 1 15 9 0 8 -1 14 -1 14 -1
0 -7 -4 -14 -9z"/>
<path d="M30176 2288 c3 -4 11 -5 19 -1 21 7 19 12 -4 10 -11 0 -18 -5 -15 -9z"/>
<path d="M30034 2263 c-14 -23 -15 -26 -1 -15 9 8 22 10 29 6 10 -6 11 -5 1 8
-7 8 -10 18 -6 21 3 4 4 7 1 7 -3 0 -14 -12 -24 -27z"/>
<path d="M29973 2263 c4 -6 2 -13 -5 -15 -8 -3 -6 -6 4 -10 17 -7 19 15 3 29
-4 4 -5 3 -2 -4z"/>
<path d="M29925 2241 c-3 -5 -2 -12 3 -15 5 -3 9 1 9 9 0 17 -3 19 -12 6z"/>
<path d="M30370 2240 c-9 -6 -10 -10 -3 -10 6 0 15 5 18 10 8 12 4 12 -15 0z"/>
<path d="M29850 2229 c0 -5 5 -7 10 -4 6 3 10 8 10 11 0 2 -4 4 -10 4 -5 0
-10 -5 -10 -11z"/>
<path d="M29810 2216 c0 -2 7 -7 16 -10 8 -3 12 -2 9 4 -6 10 -25 14 -25 6z"/>
<path d="M30370 2210 c-12 -8 -10 -10 8 -10 13 0 20 4 17 10 -7 12 -6 12 -25
0z"/>
<path d="M29714 2178 c-14 -17 -15 -20 -2 -9 9 7 22 10 27 6 7 -3 8 0 5 9 -8
20 -7 20 -30 -6z"/>
<path d="M29566 2151 c-4 -5 -2 -12 3 -15 5 -4 12 -2 15 3 4 5 2 12 -3 15 -5
4 -12 2 -15 -3z"/>
<path d="M30351 2141 c-8 -5 -9 -11 -3 -15 5 -3 12 1 16 9 6 17 6 18 -13 6z"/>
<path d="M30335 2081 c-3 -5 -1 -13 5 -16 8 -5 7 -12 -2 -23 -12 -15 -11 -16
5 -3 12 9 14 17 7 26 -5 6 -7 15 -3 18 3 4 4 7 0 7 -3 0 -8 -4 -12 -9z"/>
<path d="M28888 1997 c-62 -17 -78 -25 -78 -40 0 -13 5 -17 18 -14 9 3 49 13
88 22 62 14 71 19 67 36 -3 10 -8 19 -12 18 -3 0 -41 -10 -83 -22z"/>
<path d="M41670 1965 c-7 -9 -11 -17 -9 -20 3 -2 10 5 17 15 14 24 10 26 -8 5z"/>
<path d="M30300 1810 c-9 -6 -10 -10 -3 -10 6 0 15 5 18 10 8 12 4 12 -15 0z"/>
<path d="M27870 1744 c-52 -13 -105 -26 -116 -29 -12 -2 -29 -16 -37 -29 l-16
-24 107 28 c78 19 115 34 136 53 16 15 27 27 25 26 -2 -1 -47 -12 -99 -25z"/>
<path d="M30295 1759 c-4 -6 -5 -12 -2 -15 2 -3 7 2 10 11 7 17 1 20 -8 4z"/>
<path d="M30280 1721 c0 -7 -5 -9 -12 -5 -7 5 -8 3 -3 -5 5 -9 10 -10 18 -2 6
6 8 14 4 18 -4 3 -7 1 -7 -6z"/>
<path d="M41765 1711 c-3 -5 -2 -12 3 -15 5 -3 9 1 9 9 0 17 -3 19 -12 6z"/>
<path d="M30266 1678 c3 -5 10 -6 15 -3 13 9 11 12 -6 12 -8 0 -12 -4 -9 -9z"/>
<path d="M42179 1653 c-1 -5 -1 -11 0 -15 0 -5 -6 -8 -15 -8 -11 0 -14 -5 -10
-16 3 -9 6 -18 6 -20 0 -2 7 -4 15 -4 10 0 15 11 15 35 0 30 -8 49 -11 28z"/>
<path d="M42119 1593 c-41 -50 -43 -53 -22 -53 14 0 19 7 19 23 -1 15 4 21 15
19 9 -1 16 5 16 13 0 20 -11 19 -28 -2z"/>
<path d="M38330 1568 c-26 -14 -57 -41 -75 -66 -25 -37 -30 -53 -30 -105 0
-53 5 -70 33 -113 37 -58 82 -79 168 -79 92 1 173 74 182 163 15 159 -139 270
-278 200z"/>
<path d="M42027 1489 l-28 -29 29 0 c23 0 30 4 28 18 -2 9 1 20 6 23 6 4 6 9
2 12 -5 2 -22 -8 -37 -24z"/>
<path d="M32114 1233 c-248 -153 -779 -480 -1181 -727 -597 -368 -729 -453
-725 -468 2 -10 6 -18 8 -18 2 0 38 22 81 49 94 58 549 338 1560 960 414 255
750 467 747 472 -3 5 -13 9 -23 9 -9 0 -219 -125 -467 -277z"/>
<path d="M41855 1451 c-3 -5 -2 -12 3 -15 5 -3 9 1 9 9 0 17 -3 19 -12 6z"/>
<path d="M41964 1429 c-3 -6 -1 -16 5 -22 8 -8 11 -5 11 11 0 24 -5 28 -16 11z"/>
<path d="M41880 1409 c0 -5 5 -7 10 -4 6 3 10 8 10 11 0 2 -4 4 -10 4 -5 0
-10 -5 -10 -11z"/>
<path d="M41918 1382 c-10 -2 -18 -8 -18 -13 0 -6 -6 -7 -12 -3 -7 4 -10 4 -6
-1 4 -4 3 -16 -3 -26 -6 -11 -6 -19 0 -19 11 0 54 -110 207 -525 63 -170 121
-325 129 -343 19 -42 19 -42 -5 -42 -18 0 -20 -7 -20 -67 1 -51 3 -64 11 -51
15 27 32 22 18 -5 -11 -20 -11 -21 4 -8 10 7 17 28 17 47 0 18 5 36 10 39 6 3
10 15 10 26 0 13 4 18 12 13 8 -5 8 -3 2 7 -5 8 -9 39 -9 69 0 33 -4 54 -11
53 -10 -2 -47 87 -187 457 -152 399 -142 369 -122 384 18 13 9 16 -27 8z"/>
<path d="M26530 1356 c0 -2 8 -10 18 -17 15 -13 16 -12 3 4 -13 16 -21 21 -21
13z"/>
<path d="M26518 1333 c6 -2 9 -10 6 -15 -4 -7 -2 -8 5 -4 13 9 5 26 -12 25 -9
0 -8 -2 1 -6z"/>
<path d="M26714 1304 c-10 -8 -14 -13 -8 -10 6 3 33 -5 60 -18 27 -12 165 -76
307 -141 141 -65 257 -122 257 -128 0 -5 -13 -33 -30 -62 -16 -28 -27 -55 -23
-58 3 -4 1 -7 -5 -7 -6 0 -41 -55 -79 -122 -69 -125 -84 -153 -116 -207 -16
-29 -16 -30 0 -25 12 3 11 1 -3 -6 -11 -7 -28 -24 -37 -40 -15 -24 -15 -29 -2
-40 12 -10 16 -8 24 11 4 13 6 31 4 39 -4 13 -4 13 6 0 8 -12 11 -12 17 3 3 9
10 14 15 11 5 -3 6 2 3 11 -5 11 0 18 14 22 14 3 21 15 24 39 2 19 1 34 -3 34
-4 0 -5 9 -2 20 5 19 7 20 24 4 17 -15 18 -14 14 20 -2 20 1 33 6 30 5 -3 9
-2 8 3 -1 4 -1 17 0 28 1 15 3 17 10 6 7 -11 10 -9 15 7 4 12 19 31 34 44 15
13 26 31 24 41 -2 12 3 17 18 17 20 0 22 4 18 44 -3 44 -2 44 24 39 23 -5 26
-3 21 16 -7 27 13 51 38 46 28 -6 152 -61 654 -290 647 -296 961 -446 977
-466 9 -11 15 -28 12 -37 -5 -15 -4 -15 6 0 19 30 36 22 32 -16 -3 -23 -10
-36 -23 -39 -25 -7 -25 -43 1 -57 11 -6 20 -17 20 -25 0 -8 -9 -15 -20 -15
-11 0 -20 -7 -20 -15 0 -12 14 -15 66 -15 58 0 65 2 60 18 -10 32 -16 162 -8
162 5 0 26 -8 48 -19 234 -112 355 -161 395 -161 41 0 33 5 -131 81 -332 153
-319 146 -324 171 -3 13 -7 47 -10 77 -4 49 -16 70 -39 71 -5 0 -5 -6 -2 -13
4 -6 1 -5 -7 4 -17 21 -47 21 -43 -1 2 -9 0 -23 -5 -30 -14 -22 -1 -37 28 -33
15 1 21 0 14 -3 -6 -3 -10 -10 -6 -15 3 -5 -1 -9 -8 -9 -10 0 -9 -3 2 -10 8
-5 12 -12 8 -15 -3 -3 -12 1 -21 9 -8 8 -17 13 -19 10 -3 -2 -38 11 -79 30
-41 19 -213 97 -384 174 -294 133 -875 400 -1070 492 -49 24 -84 45 -77 48 9
2 4 9 -14 18 -18 10 -30 11 -39 4 -13 -11 -29 -5 -175 63 -251 116 -437 197
-454 197 -1 0 -11 -7 -22 -16z m412 -736 c4 -7 3 -8 -4 -4 -7 4 -12 2 -12 -5
0 -7 -3 -10 -6 -6 -6 5 3 27 11 27 2 0 7 -5 11 -12z m1944 -203 c0 -8 -4 -15
-10 -15 -5 0 -7 7 -4 15 4 8 8 15 10 15 2 0 4 -7 4 -15z"/>
<path d="M26643 1295 c0 -8 4 -12 9 -9 5 3 6 10 3 15 -9 13 -12 11 -12 -6z"/>
<path d="M30186 1243 c-6 -14 -5 -15 5 -6 7 7 10 15 7 18 -3 3 -9 -2 -12 -12z"/>
<path d="M26535 1209 c-3 -4 2 -6 10 -5 21 3 28 13 10 13 -9 0 -18 -4 -20 -8z"/>
<path d="M30153 1110 c1 -11 5 -20 9 -20 3 0 6 9 5 20 -1 11 -5 20 -9 20 -3 0
-6 -9 -5 -20z"/>
<path d="M30116 983 c-6 -14 -5 -15 5 -6 7 7 10 15 7 18 -3 3 -9 -2 -12 -12z"/>
<path d="M41545 970 c-3 -5 -1 -10 4 -10 6 0 11 5 11 10 0 6 -2 10 -4 10 -3 0
-8 -4 -11 -10z"/>
<path d="M38036 943 c-6 -14 -5 -15 5 -6 7 7 10 15 7 18 -3 3 -9 -2 -12 -12z"/>
<path d="M30115 939 c-4 -6 -5 -12 -2 -15 2 -3 7 2 10 11 7 17 1 20 -8 4z"/>
<path d="M38016 902 c-3 -5 1 -9 9 -9 8 0 12 4 9 9 -3 4 -7 8 -9 8 -2 0 -6 -4
-9 -8z"/>
<path d="M41455 880 c-3 -5 -2 -10 4 -10 5 0 13 5 16 10 3 6 2 10 -4 10 -5 0
-13 -4 -16 -10z"/>
<path d="M37962 856 c-12 -17 -20 -36 -18 -43 4 -9 -1 -13 -12 -11 -11 2 -17
-3 -16 -14 1 -10 -2 -15 -6 -13 -5 3 -21 -12 -37 -32 -15 -21 -33 -44 -40 -50
-6 -7 -99 -122 -206 -255 -142 -177 -196 -252 -199 -276 -3 -17 -3 -32 -2 -32
4 0 459 574 459 579 0 3 12 18 28 34 15 15 25 33 21 38 -3 5 0 8 6 7 7 -2 17
6 23 17 7 11 16 23 20 26 5 4 7 17 5 30 l-3 24 -23 -29z"/>
<path d="M42279 795 c-1 -8 -3 -19 -4 -25 -1 -5 -3 -19 -4 -31 -1 -13 -5 -18
-13 -13 -10 6 -10 5 -1 -7 20 -26 19 -57 -5 -82 -17 -18 -20 -27 -11 -32 7 -5
10 -4 6 2 -4 6 0 16 8 23 8 7 15 9 15 4 0 -4 4 -4 9 2 5 5 12 33 15 62 6 43 4
52 -6 46 -10 -6 -10 -4 1 9 7 9 10 17 5 17 -5 0 -4 4 2 8 9 5 8 11 -2 20 -12
10 -14 10 -15 -3z"/>
<path d="M27250 765 c-8 -9 -8 -15 -2 -15 12 0 26 19 19 26 -2 2 -10 -2 -17
-11z"/>
<path d="M33177 764 c-16 -8 -25 -20 -21 -26 4 -7 3 -8 -4 -4 -6 4 -18 -4 -27
-18 -56 -85 0 -199 104 -213 64 -9 137 44 150 108 l7 33 183 27 c100 15 185
29 187 32 2 2 -2 10 -10 16 -12 10 -45 8 -158 -9 -79 -12 -157 -23 -175 -26
-28 -3 -35 0 -48 25 -33 65 -121 91 -188 55z"/>
<path d="M41335 751 c-3 -5 -2 -12 3 -15 5 -3 9 1 9 9 0 17 -3 19 -12 6z"/>
<path d="M33834 742 c3 -5 -11 -7 -31 -5 -20 1 -40 0 -45 -3 -14 -9 11 -33 30
-29 9 1 47 6 85 10 60 7 65 9 50 21 -19 14 -98 20 -89 6z"/>
<path d="M41280 685 c-11 -13 -10 -14 4 -9 9 3 16 10 16 15 0 13 -6 11 -20 -6z"/>
<path d="M41310 685 c0 -7 30 -13 34 -7 3 4 -4 9 -15 9 -10 1 -19 0 -19 -2z"/>
<path d="M42243 678 c-11 -19 -13 -39 -1 -32 5 3 7 9 4 12 -3 3 -1 11 5 19 6
7 9 13 6 13 -3 0 -9 -6 -14 -12z"/>
<path d="M30075 649 c-4 -6 -5 -12 -2 -15 2 -3 7 2 10 11 7 17 1 20 -8 4z"/>
<path d="M41246 652 c-3 -6 0 -13 6 -15 7 -3 4 -6 -8 -6 -11 -1 -35 -18 -53
-38 -18 -21 -49 -54 -68 -74 -34 -36 -34 -36 -9 -32 18 4 26 12 26 25 0 11 8
22 19 25 11 3 21 13 24 24 3 10 12 19 21 19 14 0 20 12 17 33 0 4 8 7 18 7 24
0 32 11 22 29 -6 8 -11 9 -15 3z"/>
<path d="M42264 604 c3 -8 2 -13 -2 -10 -4 2 -14 1 -20 -3 -10 -6 -9 -11 4
-22 15 -12 17 -12 9 0 -6 11 -4 13 8 8 13 -5 17 -1 17 18 0 14 -5 25 -11 25
-6 0 -8 -7 -5 -16z"/>
<path d="M44072 455 c-106 -85 -193 -157 -192 -160 1 -14 18 -2 108 71 52 44
104 86 114 94 160 127 173 138 167 144 -3 3 -91 -64 -197 -149z"/>
<path d="M27165 468 c-16 -6 -41 -19 -54 -29 -13 -10 -27 -17 -31 -14 -4 3 -7
-3 -6 -11 0 -9 -7 -18 -17 -20 -25 -4 -35 -14 -13 -14 14 0 15 -3 5 -21 -26
-49 -5 -165 36 -199 10 -8 14 -1 20 32 4 24 10 35 12 26 11 -45 33 10 33 85 0
21 5 27 23 27 20 0 22 4 19 40 -4 35 -1 40 16 40 15 0 21 8 24 35 3 30 1 35
-17 34 -11 0 -33 -5 -50 -11z"/>
<path d="M27000 421 c-7 -14 -6 -21 3 -24 7 -4 6 -6 -4 -6 -20 -1 -34 -31 -16
-32 7 0 2 -4 -11 -10 -13 -5 -20 -13 -17 -19 3 -5 2 -10 -3 -10 -13 0 -83
-140 -76 -152 3 -5 0 -7 -8 -6 -7 2 -12 -3 -10 -9 1 -7 -2 -13 -6 -13 -14 0
-43 -60 -36 -73 4 -6 3 -9 -1 -4 -8 7 -45 -39 -45 -55 0 -5 18 -8 40 -8 29 0
40 4 40 15 0 8 -4 15 -8 15 -5 0 -9 7 -9 15 0 11 4 12 14 3 11 -8 12 -7 7 6
-3 9 -11 16 -18 16 -6 0 -5 4 3 9 8 5 11 16 8 24 -3 9 1 18 9 21 8 3 14 1 14
-5 0 -6 5 -7 10 -4 6 3 10 24 10 45 0 34 3 39 27 42 14 2 28 10 30 18 4 13 3
13 -6 0 -9 -13 -11 -13 -11 3 0 12 8 17 25 17 23 0 25 3 25 50 0 48 1 50 20
40 18 -10 20 -8 20 17 0 42 3 62 9 61 18 -2 31 3 31 13 0 5 -4 8 -9 4 -5 -3
-12 -1 -16 5 -10 16 -23 12 -35 -9z"/>
<path d="M31823 399 c-58 -17 -94 -91 -74 -152 13 -39 55 -82 70 -72 6 3 11 1
11 -4 0 -16 67 -13 100 4 37 19 60 62 60 113 0 45 -26 84 -70 107 -32 17 -50
17 -97 4z"/>
<path d="M42275 381 c-6 -11 13 -26 22 -17 4 3 1 6 -6 6 -7 0 -9 5 -6 10 3 6
4 10 1 10 -3 0 -7 -4 -11 -9z"/>
<path d="M40985 360 c3 -5 0 -10 -7 -10 -14 0 -58 -48 -58 -63 0 -5 7 -6 16
-3 9 3 19 6 24 6 5 0 10 10 12 23 2 12 10 22 18 23 30 2 32 4 20 19 -14 17
-35 21 -25 5z"/>
<path d="M43801 239 c-28 -22 -51 -45 -51 -50 0 -6 -4 -8 -8 -5 -5 3 -19 -6
-30 -19 -36 -42 -8 -28 64 31 87 70 101 84 87 84 -6 0 -33 -18 -62 -41z"/>
<path d="M42188 203 c-2 -30 -8 -48 -15 -48 -15 0 -18 -19 -3 -21 24 -3 24 -6
1 -24 -21 -18 -16 -26 12 -21 5 1 6 -3 2 -9 -3 -5 0 -10 8 -10 18 0 40 161 23
172 -21 14 -25 8 -28 -39z"/>
<path d="M42310 239 c0 -5 5 -7 10 -4 6 3 10 8 10 11 0 2 -4 4 -10 4 -5 0 -10
-5 -10 -11z"/>
<path d="M40326 217 c3 -10 9 -15 12 -12 3 3 0 11 -7 18 -10 9 -11 8 -5 -6z"/>
<path d="M40406 212 c-3 -5 1 -9 9 -9 8 0 12 4 9 9 -3 4 -7 8 -9 8 -2 0 -6 -4
-9 -8z"/>
<path d="M40841 204 c0 -11 3 -14 6 -6 3 7 2 16 -1 19 -3 4 -6 -2 -5 -13z"/>
<path d="M40175 176 c-30 -40 -45 -85 -45 -139 l0 -38 60 2 c33 1 60 5 60 8 0
10 62 31 71 25 18 -11 8 34 -11 51 -11 10 -20 24 -20 32 0 7 -4 13 -9 13 -4 0
-21 18 -36 40 -15 22 -31 40 -36 40 -4 0 -20 -15 -34 -34z"/>
<path d="M40240 187 c0 -2 6 -10 14 -16 11 -9 16 -9 22 1 4 7 4 10 -1 6 -4 -4
-14 -3 -22 3 -7 6 -13 9 -13 6z"/>
<path d="M42341 160 c14 -31 19 -36 19 -24 0 6 -7 19 -16 30 -14 18 -14 18 -3
-6z"/>
<path d="M40290 151 c0 -6 4 -13 10 -16 6 -3 7 1 4 9 -7 18 -14 21 -14 7z"/>
<path d="M40410 130 c0 -5 5 -10 11 -10 5 0 7 5 4 10 -3 6 -8 10 -11 10 -2 0
-4 -4 -4 -10z"/>
<path d="M43658 122 c-7 -11 -15 -19 -18 -18 -11 2 -131 -99 -122 -102 11 -3
35 14 77 55 13 12 25 20 28 17 3 -3 13 6 24 19 10 13 25 26 33 29 10 3 11 6 3
11 -7 4 -18 -1 -25 -11z"/>
<path d="M40722 83 c-23 -25 -42 -47 -42 -47 0 -1 8 -2 19 -2 10 0 17 5 14 12
-5 14 23 38 37 29 5 -3 10 -2 10 3 0 6 8 8 18 5 12 -3 18 2 19 16 1 12 -2 21
-8 21 -5 0 -9 -5 -9 -11 0 -5 -5 -7 -10 -4 -6 4 -8 11 -5 16 14 21 -4 6 -43
-38z"/>
<path d="M29820 106 c0 -8 4 -26 9 -40 9 -22 6 -27 -22 -45 l-32 -21 135 0
135 0 -35 22 c-19 13 -36 25 -38 28 -1 3 -22 4 -47 2 -41 -4 -46 -2 -55 24
-16 40 -50 60 -50 30z"/>
<path d="M42150 70 c0 -5 5 -10 10 -10 6 0 10 5 10 10 0 6 -4 10 -10 10 -5 0
-10 -4 -10 -10z"/>
</g>
</svg>
